PathFileType	4	(X/Y/Z)	s01c0201.trc
DataRate	CameraRate	NumFrames	NumMarkers	Units	OrigDataRate	OrigDataStartFrame	OrigNumFrames
200	200	4	48	mm	200	0	2000
Frame#	Time	racr			lacr			c7			jug			rlel			rdr			llel			ldr			s2			lic			ric			lasi			rasi			rpsi			lpsi			rgt			lgt			rth1			rth2			rth3			rth4			rlfc			rsh1			rsh2			rsh3			rsh4			rlmal			rmmal			rcal			rtoe			rmt5			lth1			lth2			lth4			lth3			llfc			lsh1			lsh2			lsh3			lsh4			llmal			lmmal			lcal			ltoe			lmt5			SBIKE			LBIKE			RBIKE			
		X1	Y1	Z1	X2	Y2	Z2	X3	Y3	Z3	X4	Y4	Z4	X5	Y5	Z5	X6	Y6	Z6	X7	Y7	Z7	X8	Y8	Z8	X9	Y9	Z9	X10	Y10	Z10	X11	Y11	Z11	X12	Y12	Z12	X13	Y13	Z13	X14	Y14	Z14	X15	Y15	Z15	X16	Y16	Z16	X17	Y17	Z17	X18	Y18	Z18	X19	Y19	Z19	X20	Y20	Z20	X21	Y21	Z21	X22	Y22	Z22	X23	Y23	Z23	X24	Y24	Z24	X25	Y25	Z25	X26	Y26	Z26	X27	Y27	Z27	X28	Y28	Z28	X29	Y29	Z29	X30	Y30	Z30	X31	Y31	Z31	X32	Y32	Z32	X33	Y33	Z33	X34	Y34	Z34	X35	Y35	Z35	X36	Y36	Z36	X37	Y37	Z37	X38	Y38	Z38	X39	Y39	Z39	X40	Y40	Z40	X41	Y41	Z41	X42	Y42	Z42	X43	Y43	Z43	X44	Y44	Z44	X45	Y45	Z45	X46	Y46	Z46	X47	Y47	Z47	X48	Y48	Z48	
0	0.0000	446.622934	1348.812963	-97.783390	452.524609	1344.195868	-432.630831	403.995059	1414.997138	-258.115336	440.290774	1257.859114	-261.661194	531.612694	1086.574570	-8.628930	705.606909	894.913479	-54.011558	517.484577	1081.185933	-530.764940	693.284477	897.315227	-468.542797	-78.838530	1138.676826	-261.169574	115.533613	1154.611235	-442.575151	84.337304	1137.481965	-107.529780	95.158490	1100.984219	-410.390482	110.461765	1088.142754	-133.931759	-48.601241	1176.268680	-208.984216	-55.033707	1183.287002	-312.323116	25.095435	1018.385573	-80.229800	36.478279	1037.774754	-470.968312	93.853706	896.910322	-64.244548	140.600183	829.180885	-72.999761	186.294616	752.459505	-87.602539	186.991129	858.699349	-83.391955	219.967544	649.584267	-110.710742	156.617137	549.528142	-76.292238	130.487855	468.648786	-76.482303	94.451285	387.320079	-86.697272	176.625698	451.609136	-111.749184	41.018191	268.967335	-104.252392	93.159993	281.158928	-178.598878	-4.544861	239.873136	-160.412627	260.168882	185.944575	-137.940406	150.801719	169.256159	-71.855802	140.264930	973.616921	-470.445412	229.082098	972.010889	-478.250438	232.186594	1026.196867	-468.879133	314.056343	962.019973	-468.237634	417.110921	910.597937	-445.508231	336.794565	832.229192	-465.391947	292.999915	758.000689	-454.485872	248.613530	686.799990	-435.283715	343.614516	732.750078	-428.771444	186.062775	576.627306	-412.069471	216.700199	583.997857	-329.479647	131.907180	543.551432	-368.471463	406.380660	504.356349	-382.974739	298.012317	490.159685	-445.570637	0.000000	0.000000	-0.000000	-21.334982	80.597090	-454.171502	-21.433771	80.515443	-53.851126	
1	0.0050	446.769209	1348.704861	-97.858104	452.565465	1344.144851	-432.723662	404.174337	1414.908352	-258.159962	440.373338	1257.749393	-261.739399	531.614409	1086.570590	-8.503091	705.587907	894.914937	-53.985497	517.483708	1081.149876	-530.837061	693.277857	897.328235	-468.562133	-78.806597	1138.673860	-261.146817	115.560035	1154.625992	-442.509677	84.419562	1137.447503	-107.533978	95.011161	1101.021528	-410.542697	110.498360	1088.098948	-133.916502	-48.514480	1176.245860	-208.970014	-54.678858	1182.876933	-312.675286	25.146512	1018.341255	-80.230539	36.498334	1037.767762	-470.958645	93.923702	896.858490	-64.266095	140.670461	829.170617	-73.028091	186.357937	752.425755	-87.629013	187.058849	858.692123	-83.401346	220.056846	649.591715	-110.717160	156.657839	549.582282	-76.305407	130.498466	468.719415	-76.517848	94.412890	387.381087	-86.693579	176.626516	451.621207	-111.760811	40.948473	269.061041	-104.253821	93.201762	281.352785	-178.530832	-4.605171	240.005223	-160.420215	260.073434	185.984058	-137.911053	150.699256	169.332350	-71.858677	140.291421	973.604036	-470.452887	229.108833	972.020292	-478.263371	232.224405	1026.156796	-468.855914	314.080751	961.990960	-468.233351	417.127138	910.586203	-445.503175	336.830523	832.174300	-465.380887	293.037738	757.951780	-454.474660	248.689752	686.730582	-435.291690	343.658041	732.706543	-428.766595	186.143785	576.556593	-412.086629	216.796561	583.899701	-329.460757	132.016131	543.445680	-368.495924	406.489404	504.322298	-382.967370	298.116412	490.105757	-445.571021	0.000000	0.000000	-0.000000	-21.335149	80.621493	-454.186068	-21.409091	80.517858	-53.871585	
2	0.0100	446.886023	1348.667619	-97.899444	452.585132	1344.115396	-432.808075	404.348159	1414.804827	-258.227969	440.438160	1257.692317	-261.800521	531.606242	1086.555167	-8.373783	705.590030	894.921014	-53.968307	517.473344	1081.136452	-530.917008	693.273793	897.342296	-468.572984	-78.783441	1138.694677	-261.126250	115.613190	1154.635231	-442.527330	84.499363	1137.401391	-107.544063	94.737099	1101.073900	-410.783396	110.556824	1088.096914	-133.885191	-48.515909	1176.252281	-208.935214	-53.873143	1181.863870	-313.586332	25.186412	1018.313243	-80.216752	36.517532	1037.770099	-470.943369	93.975086	896.850800	-64.252620	140.722918	829.161709	-73.034519	186.417155	752.420596	-87.639242	187.108581	858.690683	-83.398556	220.132928	649.602940	-110.717786	156.718042	549.634461	-76.326205	130.514677	468.786180	-76.522030	94.392352	387.478627	-86.716317	176.657169	451.659625	-111.777965	40.885037	269.178752	-104.246631	92.957673	281.397902	-178.586515	-4.689416	240.122532	-160.418647	259.964289	186.029859	-137.908265	150.609466	169.385543	-71.866981	140.308578	973.590014	-470.444410	229.125966	971.996576	-478.253737	232.268443	1026.131254	-468.872423	314.096839	961.949365	-468.243312	417.160765	910.557685	-445.491361	336.863124	832.122704	-465.383250	293.104501	757.904859	-454.479748	248.758662	686.664467	-435.306567	343.711766	732.646364	-428.746356	186.228255	576.475185	-412.091916	216.889396	583.846923	-329.478931	132.098491	543.354180	-368.496833	406.581452	504.286460	-382.958454	298.249696	490.050598	-445.585878	0.000000	0.000000	-0.000000	-21.332823	80.628650	-454.185204	-21.412423	80.503939	-53.853483	
3	0.0150	446.990311	1348.653360	-97.923629	452.157473	1343.450043	-432.802312	404.480906	1414.736446	-258.283935	440.512201	1257.620568	-261.837613	531.548020	1086.554258	-8.205611	705.580696	894.917735	-53.953033	518.485377	1081.213574	-529.915208	693.611020	897.977225	-468.575157	-78.791641	1139.025969	-260.162490	115.669506	1154.596004	-442.478336	84.664537	1137.569273	-107.406185	94.496142	1101.116436	-410.991684	110.822095	1088.130493	-133.884093	-48.462084	1176.257707	-208.915728	-53.072070	1180.857309	-314.493985	25.418339	1018.150435	-80.025461	36.545346	1037.759665	-470.936333	94.036675	896.833679	-64.249384	140.799672	829.159324	-73.035015	186.483036	752.418255	-87.648312	187.184345	858.849728	-84.197017	220.246851	649.638172	-110.742938	156.764221	549.695428	-76.347042	130.525067	468.875893	-76.522961	94.389154	387.580500	-86.715814	176.683698	451.701043	-111.777358	40.723903	269.371786	-104.211971	92.874964	281.439527	-178.610067	-4.754338	240.259936	-160.412148	259.841317	186.043143	-137.915688	150.498121	169.452120	-71.846579	140.437680	973.525046	-470.467395	229.152365	971.975785	-478.238000	232.598777	1026.130579	-468.450865	314.101650	961.936726	-468.243784	417.368996	910.566042	-445.277496	338.236633	832.246234	-466.214420	293.201368	757.818991	-454.472061	249.078321	686.564714	-435.141460	344.142734	732.666062	-428.614159	186.892623	576.632659	-411.408322	217.081397	583.876069	-329.274540	132.305214	543.245299	-368.489471	406.679143	504.246920	-382.957189	298.359913	489.995552	-445.588391	0.000000	0.000000	-0.000000	-21.333372	80.622722	-454.165084	-21.427167	80.519385	-53.855574	
